<?xml version="1.0" encoding="UTF-8" standalone="no"?>
<!-- Created with Inkscape (http://www.inkscape.org/) -->

<svg
   width="115.0015mm"
   height="117.08443mm"
   viewBox="0 0 115.00149 117.08444"
   version="1.1"
   id="svg1"
   xmlns="http://www.w3.org/2000/svg"
   xmlns:svg="http://www.w3.org/2000/svg">
  <defs
     id="defs1" />
  <g
     id="layer1"
     transform="translate(-29.522746,-46.846129)">
    <path
       id="path4"
       style="fill:#000000;stroke-width:1;stroke-linecap:square;stroke-linejoin:round;paint-order:fill markers stroke"
       d="M 73.829258,47.98618 C 73.550788,44.554491 58.638622,48.581917 44.824612,64.008347 35.29555,74.649678 29.54913,88.678276 29.522746,103.93061 c 2.8e-5,33.13705 26.862907,59.99993 59.999955,59.99995 13.558679,-0.0195 26.268169,-4.5848 36.466329,-12.41919 14.13541,-10.85906 19.71704,-22.16228 18.32958,-24.32385 -1.38746,-2.16157 -4.26022,0.47226 -13.85433,4.81406 -6.39512,2.8941 -13.39938,4.44218 -20.57796,4.44746 -27.614279,3e-5 -50.000082,-22.38577 -50.000053,-50.000053 4.88e-4,-8.500585 2.30901,-16.630839 6.107655,-23.944197 6.61432,-12.734249 8.113806,-11.086921 7.835336,-14.51861 z" />
    <path
       style="fill:#000000;stroke-width:1;stroke-linecap:square;stroke-linejoin:round;paint-order:fill markers stroke"
       id="path5"
       d="m 79.79688,54.66623 c 0.490389,-0.490389 6.991431,4.011511 7.684947,4.011511 0.693516,0 7.194557,-4.501901 7.684947,-4.011511 0.490389,0.49039 -4.011511,6.991432 -4.011511,7.684947 0,0.693516 4.501901,7.194558 4.011511,7.684947 -0.49039,0.49039 -6.991432,-4.01151 -7.684947,-4.01151 -0.693516,0 -7.194558,4.5019 -7.684947,4.01151 -0.49039,-0.490389 4.01151,-6.991431 4.01151,-7.684947 0,-0.693516 -4.5019,-7.194557 -4.01151,-7.684947 z"
       transform="rotate(25.971922,70.94842,70.550685)" />
    <path
       style="fill:#000000;stroke-width:1;stroke-linecap:square;stroke-linejoin:round;paint-order:fill markers stroke"
       id="path5-8"
       d="m 79.79688,54.66623 c 0.490389,-0.490389 6.991431,4.011511 7.684947,4.011511 0.693516,0 7.194557,-4.501901 7.684947,-4.011511 0.490389,0.49039 -4.011511,6.991432 -4.011511,7.684947 0,0.693516 4.501901,7.194558 4.011511,7.684947 -0.49039,0.49039 -6.991432,-4.01151 -7.684947,-4.01151 -0.693516,0 -7.194558,4.5019 -7.684947,4.01151 -0.49039,-0.490389 4.01151,-6.991431 4.01151,-7.684947 0,-0.693516 -4.5019,-7.194557 -4.01151,-7.684947 z"
       transform="rotate(21.093827,-22.272651,171.45459)" />
    <path
       style="fill:#000000;stroke-width:1;stroke-linecap:square;stroke-linejoin:round;paint-order:fill markers stroke"
       id="path5-5"
       d="m 79.79688,54.66623 c 0.490389,-0.490389 6.991431,4.011511 7.684947,4.011511 0.693516,0 7.194557,-4.501901 7.684947,-4.011511 0.490389,0.49039 -4.011511,6.991432 -4.011511,7.684947 0,0.693516 4.501901,7.194558 4.011511,7.684947 -0.49039,0.49039 -6.991432,-4.01151 -7.684947,-4.01151 -0.693516,0 -7.194558,4.5019 -7.684947,4.01151 -0.49039,-0.490389 4.01151,-6.991431 4.01151,-7.684947 0,-0.693516 -4.5019,-7.194557 -4.01151,-7.684947 z"
       transform="rotate(28.931044,15.708518,87.800886)" />
  </g>
</svg>
