<?xml version="1.0" encoding="UTF-8" standalone="no"?>
<!-- Created with Inkscape (http://www.inkscape.org/) -->

<svg
   width="106.45516mm"
   height="159.62979mm"
   viewBox="0 0 106.45516 159.62979"
   version="1.1"
   id="svg1"
   xmlns="http://www.w3.org/2000/svg"
   xmlns:svg="http://www.w3.org/2000/svg">
  <defs
     id="defs1" />
  <g
     id="layer1"
     transform="translate(-35.085674,-47.144903)">
    <path
       style="fill:#000000;stroke-width:10;stroke-linecap:round;stroke-linejoin:round;paint-order:fill markers stroke"
       d="m 75.871045,198.35366 c 13.38138,-8.09466 18.340386,-38.14975 18.674528,-75.82477 0.334141,-37.675028 -2.041258,-58.476017 13.845477,-64.326188 15.88673,-5.850171 10.42516,7.226841 21.4086,11.481804 10.98344,4.254963 15.81828,-10.846081 7.64509,-17.265259 -8.17319,-6.419178 -19.61013,-8.026342 -35.8574,1.151761 -16.247265,9.178103 -23.630247,23.590133 -22.863745,70.457272 0.766501,46.86713 3.845138,59.88762 -9.312101,67.79739 -13.157237,7.90977 -12.205213,-5.61672 -22.42903,-7.74105 -10.223817,-2.12433 -15.913749,10.37107 -8.573212,18.34048 7.340537,7.96941 24.080413,4.02322 37.461793,-4.07144 z"
       id="path3" />
  </g>
</svg>
