<?xml version="1.0" encoding="UTF-8" standalone="no"?>
<svg
   version="1.1"
   width="270.54367"
   height="262.90588"
   viewBox="0 0 270.54367 262.90588"
   xml:space="preserve"
   id="svg1"
   xmlns="http://www.w3.org/2000/svg"
   xmlns:svg="http://www.w3.org/2000/svg">

<defs
   id="defs1">
</defs>
<g
   style="opacity:1;fill:none;fill-rule:nonzero;stroke:none;stroke-width:0;stroke-linecap:butt;stroke-linejoin:miter;stroke-miterlimit:10;stroke-dasharray:none"
   transform="matrix(2.8210393,0,0,3.7987797,14.958266,-39.49214)"
   id="g1">
	<path
   d="m 88.698406,37.491244 c -1.054887,-1.477983 -2.844231,-2.35978 -4.785532,-2.35978 H 23.281001 c -2.619599,0 -5.004657,1.398092 -6.082668,3.563139 -0.0022,0.005 -0.0066,0.009 -0.0088,0.01298 L 6.0361303,61.267805 c -0.4977129,1.006627 -0.0011,2.188015 1.1077417,2.640398 0.2929018,0.118838 0.5979161,0.17576 0.899627,0.17576 0.8412669,0 1.6439941,-0.4394 2.010672,-1.181388 L 21.208665,40.343353 c 0,-9.98e-4 0,-9.98e-4 0.0011,-0.002 0.366677,-0.737993 1.178214,-1.215342 2.071234,-1.215342 h 60.632975 c 0.636455,0 0.973403,0.375488 1.087921,0.537267 0.114518,0.161779 0.354565,0.593191 0.0947,1.120471 l -10.70433,32.108197 c -0.518635,1.050567 -1.673725,1.728642 -2.942232,1.728642 H 9.5134081 1.6182724 C 0.77590432,74.619589 0.09099853,73.998437 0.09099853,73.234479 V 66.074248 24.428067 c 0,-0.52029 0.46688112,-0.943713 1.04057227,-0.943713 h 2.4489236 c 3.6777899,0 6.6706736,-2.713298 6.6706736,-6.049746 0,-1.133453 1.016348,-2.055196 2.266136,-2.055196 h 25.413087 c 0.848975,0 1.618668,0.423423 2.009571,1.106491 l 2.147213,3.740896 c 1.151787,2.009259 3.419023,3.256557 5.917498,3.256557 h 23.718441 c 0.573691,0 1.039471,0.423422 1.039471,0.943712 v 4.674004 c 0,1.102496 0.986617,1.997275 2.20227,1.997275 1.216753,0 2.202269,-0.894779 2.202269,-1.997275 v -4.673005 c 0,-2.723285 -2.442317,-4.938263 -5.44401,-4.938263 H 48.004673 c -0.848975,0 -1.618668,-0.423422 -2.009571,-1.10649 L 43.84899,14.642418 c -1.151787,-2.009259 -3.420124,-3.257556 -5.917498,-3.257556 h -25.41529 c -3.6777894,0 -6.6706735,2.714297 -6.6706735,6.049746 0,1.133454 -1.0163474,2.055196 -2.2661352,2.055196 H 1.1304697 c -3.0016932,0 -5.44401,2.215977 -5.44401,4.938263 v 41.646181 7.160231 c 0,2.966952 2.6614426,5.380659 5.9329138,5.380659 H 9.5145093 71.451134 c 3.001693,0 5.733608,-1.604811 6.961373,-4.088422 l 10.70433,-32.109193 c 0.792817,-1.606807 0.636456,-3.448295 -0.418431,-4.926279 z"
   style="opacity:1;fill:#000000;fill-opacity:1;fill-rule:nonzero;stroke:#000000;stroke-width:1.97771;stroke-linecap:butt;stroke-linejoin:miter;stroke-miterlimit:10;stroke-dasharray:none;stroke-opacity:1"
   stroke-linecap="round"
   id="path1" />
</g>
</svg>
