<?xml version="1.0" encoding="UTF-8" standalone="no"?>
<!-- Created with Inkscape (http://www.inkscape.org/) -->

<svg
   width="21mm"
   height="21mm"
   viewBox="0 0 21 21"
   version="1.1"
   id="svg1"
   xmlns="http://www.w3.org/2000/svg"
   xmlns:svg="http://www.w3.org/2000/svg">
  <defs
     id="defs1">
    <rect
       x="34.4888"
       y="52.6408"
       width="104.55552"
       height="48.284321"
       id="rect1" />
  </defs>
  <g
     id="layer1"
     transform="translate(-0.01794624,-0.06597519)">
    <circle
       style="fill:none;stroke:#000000;stroke-width:1;stroke-linecap:square;stroke-linejoin:round;stroke-dasharray:none;paint-order:fill markers stroke"
       id="path1"
       cx="10.517946"
       cy="10.565975"
       r="10" />
    <path
       d="M 52.332031,81.835195 H 37.613281 V 58.56957 h 3.09375 v 20.515625 h 11.625 z m 17.328125,0 h -2.9375 v -1.9375 q -1.484375,1.171875 -2.84375,1.796875 -1.359375,0.625 -3,0.625 -2.75,0 -4.28125,-1.671875 -1.53125,-1.6875 -1.53125,-4.9375 V 64.38207 h 2.9375 v 9.9375 q 0,1.328125 0.125,2.28125 0.125,0.9375 0.53125,1.609375 0.421875,0.6875 1.09375,1 0.671875,0.3125 1.953125,0.3125 1.140625,0 2.484375,-0.59375 1.359375,-0.59375 2.53125,-1.515625 V 64.38207 h 2.9375 z m 19.34375,0 H 86.082031 V 79.97582 q -0.390625,0.265625 -1.0625,0.75 -0.65625,0.46875 -1.28125,0.75 -0.734375,0.359375 -1.6875,0.59375 -0.953125,0.25 -2.234375,0.25 -2.359375,0 -4,-1.5625 -1.640625,-1.5625 -1.640625,-3.984375 0,-1.984375 0.84375,-3.203125 0.859375,-1.234375 2.4375,-1.9375 1.59375,-0.703125 3.828125,-0.953125 2.234375,-0.25 4.796875,-0.375 V 69.85082 q 0,-1 -0.359375,-1.65625 -0.34375,-0.65625 -1,-1.03125 -0.625,-0.359375 -1.5,-0.484375 -0.875,-0.125 -1.828125,-0.125 -1.15625,0 -2.578125,0.3125 -1.421875,0.296875 -2.9375,0.875 h -0.15625 V 64.75707 q 0.859375,-0.234375 2.484375,-0.515625 1.625,-0.28125 3.203125,-0.28125 1.84375,0 3.203125,0.3125 1.375,0.296875 2.375,1.03125 0.984375,0.71875 1.5,1.859375 0.515625,1.140625 0.515625,2.828125 z M 86.082031,77.53832 v -4.859375 q -1.34375,0.07813 -3.171875,0.234375 -1.8125,0.15625 -2.875,0.453125 -1.265625,0.359375 -2.046875,1.125 -0.78125,0.75 -0.78125,2.078125 0,1.5 0.90625,2.265625 0.90625,0.75 2.765625,0.75 1.546875,0 2.828125,-0.59375 1.28125,-0.609375 2.375,-1.453125 z"
       id="text1"
       style="fill:#000000;font-size:32px;white-space:pre;stroke:#000000;stroke-width:0;stroke-linecap:square;stroke-linejoin:round;paint-order:fill markers stroke"
       transform="matrix(0.26458333,0,0,0.26458333,-6.3395861,-6.339586)"
       aria-label="Lua" />
    <circle
       style="fill:#000000;fill-opacity:1;stroke:none;stroke-width:1;stroke-linecap:square;stroke-linejoin:round;stroke-dasharray:none;paint-order:fill markers stroke"
       id="path2"
       cx="13.639715"
       cy="5.4270697"
       r="3" />
  </g>
</svg>
