<?xml version="1.0" encoding="UTF-8" standalone="no"?>
<!-- Uploaded to: SVG Repo, www.svgrepo.com, Generator: SVG Repo Mixer Tools -->

<svg
   fill="#000000"
   height="826.59393"
   width="615.27319"
   version="1.1"
   id="Capa_1"
   viewBox="0 0 40.761849 54.761848"
   xml:space="preserve"
   xmlns="http://www.w3.org/2000/svg"
   xmlns:svg="http://www.w3.org/2000/svg"><defs
   id="defs1" />
<g
   id="g1"
   transform="translate(-6.119075,0.880925)">
	<path
   d="M 45.707,15.697251 28.78234,0.292 C 28.59434,0.105 28.34034,0 28.07534,0 L 8,0 C 7.448,0 7,0.448 7,1 v 51 c 0,0.552 0.448,1 1,1 h 37 c 0.552,0 1,-0.448 1,-1 l 0,-35.594749 c 0,-0.266 -0.105,-0.52 -0.293,-0.708 z m -3.121,-0.075 -13.71666,0 0,-12.208251 z M 9,51 V 2 l 17.86934,0 0,14.622251 c 0,0.552 0.448,1 1,1 L 44,17.622251 44,51 Z"
   id="path1"
   style="fill:#000000;fill-opacity:1;stroke:#000000;stroke-width:1.76185;stroke-linejoin:round;stroke-dasharray:none;stroke-opacity:1" />
</g>
</svg>
